<svg xmlns="http://www.w3.org/2000/svg" width="120" height="120" viewBox="0 0 120 120" fill="none">
<path d="M116.53 59.9619C116.53 91.2037 91.2036 116.53 59.9617 116.53C28.7199 116.53 3.39331 91.2037 3.39331 59.9619C3.39331 28.72 28.7199 3.39343 59.9617 3.39343C91.2036 3.39343 116.53 28.72 116.53 59.9619Z" fill="#F2F2F2"/>
<path d="M80.2411 80.2408C81.8904 81.89 84.6152 81.864 86.2962 80.1829L90.8809 75.5982C91.4158 75.0633 92.3212 75.3574 92.4653 76.1128C92.7565 77.321 93.4269 78.4498 94.6307 79.1951C96.4356 80.3887 98.7812 80.442 100.533 79.29C103.579 77.2932 103.845 73.2795 101.521 70.9556C100.771 70.206 99.9421 69.8355 99.0368 69.5414C98.2813 69.3973 97.9873 68.4919 98.5986 67.8806L103.183 63.2959C104.864 61.6148 104.89 58.89 103.241 57.2408L97.9936 51.9932C97.4688 51.4685 96.5577 51.7799 96.3991 52.5382C96.0847 53.7522 95.3927 54.894 94.1744 55.6625C92.3463 56.8908 89.9993 56.989 88.2693 55.8703C85.3355 54.0063 85.0718 49.922 87.4406 47.5532C88.2047 46.7891 89.0409 46.4027 89.9521 46.0913C90.634 46.0091 90.9454 45.0979 90.4207 44.5731L85.9228 40.0752C84.2735 38.426 81.5487 38.452 79.8677 40.1331L60.0006 60.0002L80.2411 80.2408Z" fill="#F1592A"/>
<path d="M39.7597 80.2403C38.1104 81.8896 38.1365 84.6144 39.8175 86.2954L44.4022 90.8801C44.9371 91.415 44.643 92.3204 43.8876 92.4645C42.6795 92.7557 41.5507 93.4261 40.8053 94.6298C39.6117 96.4348 39.5584 98.7804 40.7104 100.532C42.7072 103.578 46.7209 103.844 49.0448 101.52C49.7944 100.77 50.1649 99.9413 50.459 99.0359C50.6032 98.2805 51.5085 97.9864 52.1198 98.5977L56.7045 103.182C58.3856 104.863 61.1104 104.89 62.7596 103.24L68.0072 97.9927C68.5319 97.4679 68.2205 96.5568 67.4622 96.3982C66.2483 96.0839 65.1064 95.3918 64.338 94.1736C63.1096 92.3455 63.0115 89.9984 64.1302 88.2684C65.9942 85.3346 70.0785 85.0709 72.4472 87.4397C73.2114 88.2038 73.5978 89.04 73.9092 89.9512C73.9914 90.6331 74.9025 90.9445 75.4273 90.4198L79.9252 85.9218C81.5745 84.2726 81.5484 81.5478 79.8674 79.8668L60.0003 59.9997L39.7597 80.2403Z" fill="#8CC63F"/>
<path d="M80.2393 39.7588C81.8886 38.1096 81.8625 35.3848 80.1815 33.7037L75.5968 29.119C75.0619 28.5841 75.356 27.6788 76.1114 27.5346C77.3195 27.2434 78.4484 26.5731 79.1937 25.3693C80.3873 23.5643 80.4406 21.2187 79.2886 19.467C77.2918 16.4207 73.2782 16.1553 70.9542 18.4792C70.2046 19.2289 69.8341 20.0578 69.54 20.9632C69.3959 21.7186 68.4905 22.0127 67.8792 21.4014L63.2945 16.8167C61.6134 15.1357 58.8887 15.1096 57.2394 16.7589L51.9918 22.0064C51.4671 22.5312 51.7785 23.4424 52.5369 23.601C53.7508 23.9153 54.8926 24.6073 55.6611 25.8256C56.8894 27.6537 56.9875 30.0007 55.8688 31.7307C54.0048 34.6645 49.9205 34.9282 47.5518 32.5594C46.7877 31.7953 46.4013 30.9591 46.0898 30.048C46.0076 29.3661 45.0965 29.0546 44.5717 29.5794L40.0738 34.0773C38.4246 35.7265 38.4506 38.4513 40.1317 40.1324L59.9987 59.9994L80.2393 39.7588Z" fill="#57B7DF"/>
<path d="M39.7596 39.7583C38.1103 38.1091 35.3856 38.1352 33.7045 39.8162L29.1198 44.4009C28.5849 44.9358 27.6795 44.6418 27.5354 43.8863C27.2442 42.6782 26.5739 41.5494 25.3701 40.8041C23.5651 39.6104 21.2195 39.5571 19.4678 40.7091C16.4215 42.7059 16.1561 46.7196 18.48 49.0435C19.2296 49.7932 20.0586 50.1637 20.964 50.4577C21.7194 50.6019 22.0135 51.5073 21.4022 52.1185L16.8174 56.7033C15.1364 58.3843 15.1103 61.1091 16.7596 62.7584L22.0071 68.0059C22.5319 68.5307 23.443 68.2192 23.6017 67.4609C23.916 66.247 24.608 65.1051 25.8263 64.3367C27.6544 63.1083 30.0014 63.0102 31.7314 64.1289C34.6652 65.9929 34.9289 70.0772 32.5601 72.4459C31.796 73.2101 30.9598 73.5965 30.0486 73.9079C29.3667 73.9901 29.0553 74.9013 29.58 75.426L34.078 79.9239C35.7272 81.5731 38.452 81.5471 40.133 79.866L60.0002 59.9989C59.9885 60.0105 60.0002 59.9989 59.9885 60.0105L39.7596 39.7583Z" fill="#F7941E"/>
</svg>